<svg id="Capa_1" enable-background="new 0 0 512 512" height="512" viewBox="0 0 512 512" width="512" xmlns="http://www.w3.org/2000/svg"><g><path d="m181 310-18-82c-8.333-29-37.75-37-55-34-4.899.852-9.943 4.123-13.323 8.278-2.444 3.005-3.677 6.817-3.677 10.691 0 .888.064 1.772.203 2.65 5.016 31.783 26.574 111.933 31.797 129.381 20.816 69.536 84 105 84 105h158c33.298-20.118 56-44 56-90v-155c0-16.568-13.431-30-30-30-16.569 0-30 13.431-30 30v-30c0-16.568-13.431-30-30-30-30 0-30 30-30 30s0-138.521 0-135c0-16.568-13.431-30-30-30-16.569 0-30 13.431-30 30 0-16.568-13.431-30-30-30-16.569 0-30 13.431-30 30z" fill="#fff"/><path d="m207 450h158v52h-158z" fill="#a0e5a5"/><g><path d="m419.28 176.711c-7.55-7.55-17.59-11.71-28.28-11.71-7.14 0-14.14 1.9-20.25 5.5-1.09-9.699-5.69-18.65-12.97-25.22-7.36-6.63-16.86-10.28-26.78-10.28h-.17c-7.31 0-14.16 1.601-19.83 4.63v-99.7c0-.021 0-.051 0-.07-.04-10.66-4.22-20.67-11.76-28.191-7.55-7.529-17.581-11.67-28.24-11.67-11.48 0-22.41 4.94-30 13.54-7.591-8.6-18.52-13.54-30-13.54-10.69 0-20.73 4.16-28.28 11.71-7.561 7.561-11.72 17.601-11.72 28.29v180.381c-2.28-5.98-5.51-11.46-9.59-16.279-3.81-4.48-8.28-8.311-13.29-11.38-5.12-3.15-10.7-5.54-16.58-7.12-5.37-1.45-10.87-2.181-16.34-2.19-3.11 0-6.11.24-8.93.74-7.38 1.39-14.07 5.47-19.35 11.82-3.82 4.699-5.92 10.739-5.92 17 0 1.43.11 2.85.33 4.21 2.24 14.16 7.63 38.04 16 70.97 6.37 25.01 13.19 50 16.09 59.71 5.06 16.86 12.86 33.17 23.2 48.47 8.21 12.16 18.06 23.761 29.28 34.481 12.924 12.32 24.644 20.579 31.1 24.759v46.428c0 5.522 4.477 10 10 10h158c5.523 0 10-4.478 10-10v-46.441c7.386-4.699 13.737-9.314 19.28-14.017 7.84-6.67 14.2-13.59 19.43-21.15 5.63-8.11 9.94-17.17 12.81-26.931 3-10.21 4.51-21.47 4.48-33.46v-34.92c0-5.52-4.49-10-10-10s-10 4.48-10 10v34.92c-.05 19.851-4.41 35.431-13.74 49.021-7.599 11.009-18.738 20.848-35.065 30.977h-152.43c-4.864-3.032-17.65-11.521-31.705-25.257-15.31-14.92-35.63-39.64-45.48-72.611-2.33-7.77-8.98-31.86-15.87-58.92-4.64-18.199-12.84-51.4-15.63-69.15-.05-.351-.08-.71-.08-1.09 0-1.681.52-3.28 1.43-4.391 1.86-2.41 5.44-4.52 7.29-4.73 1.64-.29 3.54-.45 5.48-.45h.11c7.6 0 15.93 2.37 22.29 6.33 7.88 4.939 13.02 11.74 15.72 20.78l17.91 81.63c.49 2.229 1.74 4.239 3.53 5.66 2.05 1.64 4.71 2.42 7.32 2.14 5.09-.55 8.92-4.83 8.92-9.94v-270c.02-11.01 8.99-19.98 20-20 11.01.021 19.98 8.99 20 20v200.001c0 5.511 4.49 9.99 10 9.99 5.52 0 10-4.48 10-9.99v-200.001c.02-11.01 8.99-19.98 20-20 11.01.021 19.98 8.99 20 20v205.001c0 5.511 4.49 10 10 10s10-4.489 10-10v-69.99c0-.006 0-.008 0-.011 0-.002 0-.005 0-.01-.02-.71.48-6.82 3.2-11.47 1.47-2.58 3.22-4.43 5.48-5.82 3.03-1.83 6.62-2.689 11.32-2.7 11.01.011 19.98 8.99 20 20v76c0 5.511 4.49 10 10 10 5.52 0 10-4.489 10-10v-46c.02-11.01 8.99-19.98 20-20 11.01.021 19.98 8.99 20 20v30.08c0 5.511 4.49 10 10 10s10-4.489 10-10v-30.08c0-10.688-4.16-20.728-11.72-28.289zm-202.28 315.289v-31.997h138v31.997z"/><circle cx="421" cy="280.083" r="10"/></g></g></svg>